<mxfile host="Electron" modified="2024-04-19T18:10:20.862Z" agent="Mozilla/5.0 (Windows NT 10.0; Win64; x64) AppleWebKit/537.36 (KHTML, like Gecko) draw.io/22.1.2 Chrome/114.0.5735.289 Electron/25.9.4 Safari/537.36" etag="f3QDCqba47xVlEIItO7f" version="22.1.2" type="device">
  <diagram name="Page-1" id="2c0d36ab-eaac-3732-788b-9136903baeff">
    <mxGraphModel dx="1354" dy="818" grid="1" gridSize="10" guides="1" tooltips="1" connect="1" arrows="1" fold="1" page="1" pageScale="1.5" pageWidth="1169" pageHeight="827" background="none" math="0" shadow="0">
      <root>
        <mxCell id="0" />
        <mxCell id="1" parent="0" />
        <mxCell id="B_4cpsGFPYS9S5uiymkb-44" value="" style="rounded=0;whiteSpace=wrap;html=1;" parent="1" vertex="1">
          <mxGeometry x="100" y="139" width="1400" height="582" as="geometry" />
        </mxCell>
        <mxCell id="lXyPwl060S7qnHaX3h5r-129" style="edgeStyle=orthogonalEdgeStyle;rounded=0;orthogonalLoop=1;jettySize=auto;html=1;exitX=1;exitY=0.5;exitDx=0;exitDy=0;entryX=0;entryY=0.5;entryDx=0;entryDy=0;" parent="1" source="lXyPwl060S7qnHaX3h5r-123" target="lXyPwl060S7qnHaX3h5r-124" edge="1">
          <mxGeometry relative="1" as="geometry" />
        </mxCell>
        <mxCell id="lXyPwl060S7qnHaX3h5r-123" value="&lt;font style=&quot;font-size: 18px;&quot;&gt;Start&lt;/font&gt;" style="rounded=1;whiteSpace=wrap;html=1;" parent="1" vertex="1">
          <mxGeometry x="130" y="400" width="120" height="60" as="geometry" />
        </mxCell>
        <mxCell id="lXyPwl060S7qnHaX3h5r-130" style="edgeStyle=orthogonalEdgeStyle;rounded=0;orthogonalLoop=1;jettySize=auto;html=1;exitX=1;exitY=0.5;exitDx=0;exitDy=0;entryX=0;entryY=0.5;entryDx=0;entryDy=0;" parent="1" source="lXyPwl060S7qnHaX3h5r-124" target="lXyPwl060S7qnHaX3h5r-126" edge="1">
          <mxGeometry relative="1" as="geometry" />
        </mxCell>
        <mxCell id="lXyPwl060S7qnHaX3h5r-124" value="&lt;font style=&quot;font-size: 18px;&quot;&gt;Scan Card&lt;/font&gt;" style="rounded=1;whiteSpace=wrap;html=1;" parent="1" vertex="1">
          <mxGeometry x="300" y="400" width="120" height="60" as="geometry" />
        </mxCell>
        <mxCell id="lXyPwl060S7qnHaX3h5r-131" style="edgeStyle=orthogonalEdgeStyle;rounded=0;orthogonalLoop=1;jettySize=auto;html=1;exitX=1;exitY=0.5;exitDx=0;exitDy=0;entryX=0;entryY=0.5;entryDx=0;entryDy=0;" parent="1" source="lXyPwl060S7qnHaX3h5r-126" target="lXyPwl060S7qnHaX3h5r-128" edge="1">
          <mxGeometry relative="1" as="geometry" />
        </mxCell>
        <mxCell id="lXyPwl060S7qnHaX3h5r-139" style="edgeStyle=orthogonalEdgeStyle;rounded=0;orthogonalLoop=1;jettySize=auto;html=1;exitX=0.5;exitY=0;exitDx=0;exitDy=0;entryX=0.5;entryY=1;entryDx=0;entryDy=0;" parent="1" source="lXyPwl060S7qnHaX3h5r-126" target="lXyPwl060S7qnHaX3h5r-138" edge="1">
          <mxGeometry relative="1" as="geometry" />
        </mxCell>
        <mxCell id="lXyPwl060S7qnHaX3h5r-126" value="&lt;font style=&quot;font-size: 18px;&quot;&gt;Pincode&lt;/font&gt;" style="rounded=1;whiteSpace=wrap;html=1;" parent="1" vertex="1">
          <mxGeometry x="470" y="400" width="120" height="60" as="geometry" />
        </mxCell>
        <mxCell id="lXyPwl060S7qnHaX3h5r-145" style="edgeStyle=orthogonalEdgeStyle;rounded=0;orthogonalLoop=1;jettySize=auto;html=1;exitX=1;exitY=0.5;exitDx=0;exitDy=0;entryX=0;entryY=0.5;entryDx=0;entryDy=0;" parent="1" source="lXyPwl060S7qnHaX3h5r-128" target="lXyPwl060S7qnHaX3h5r-134" edge="1">
          <mxGeometry relative="1" as="geometry" />
        </mxCell>
        <mxCell id="lXyPwl060S7qnHaX3h5r-146" style="edgeStyle=orthogonalEdgeStyle;rounded=0;orthogonalLoop=1;jettySize=auto;html=1;exitX=1;exitY=0.5;exitDx=0;exitDy=0;entryX=0;entryY=0.5;entryDx=0;entryDy=0;" parent="1" source="lXyPwl060S7qnHaX3h5r-128" target="lXyPwl060S7qnHaX3h5r-133" edge="1">
          <mxGeometry relative="1" as="geometry" />
        </mxCell>
        <mxCell id="lXyPwl060S7qnHaX3h5r-147" style="edgeStyle=orthogonalEdgeStyle;rounded=0;orthogonalLoop=1;jettySize=auto;html=1;exitX=1;exitY=0.5;exitDx=0;exitDy=0;entryX=0;entryY=0.5;entryDx=0;entryDy=0;" parent="1" source="lXyPwl060S7qnHaX3h5r-128" target="lXyPwl060S7qnHaX3h5r-132" edge="1">
          <mxGeometry relative="1" as="geometry" />
        </mxCell>
        <mxCell id="B_4cpsGFPYS9S5uiymkb-41" style="edgeStyle=orthogonalEdgeStyle;rounded=0;orthogonalLoop=1;jettySize=auto;html=1;exitX=0.5;exitY=0;exitDx=0;exitDy=0;" parent="1" source="lXyPwl060S7qnHaX3h5r-128" edge="1">
          <mxGeometry relative="1" as="geometry">
            <mxPoint x="720" y="350" as="targetPoint" />
          </mxGeometry>
        </mxCell>
        <mxCell id="m8J3gn9Aabh27My44AZE-2" style="edgeStyle=orthogonalEdgeStyle;rounded=0;orthogonalLoop=1;jettySize=auto;html=1;exitX=1;exitY=0.5;exitDx=0;exitDy=0;entryX=0;entryY=0.5;entryDx=0;entryDy=0;" edge="1" parent="1" source="lXyPwl060S7qnHaX3h5r-128" target="m8J3gn9Aabh27My44AZE-1">
          <mxGeometry relative="1" as="geometry" />
        </mxCell>
        <mxCell id="m8J3gn9Aabh27My44AZE-3" style="edgeStyle=orthogonalEdgeStyle;rounded=0;orthogonalLoop=1;jettySize=auto;html=1;exitX=1;exitY=0.5;exitDx=0;exitDy=0;entryX=0;entryY=0.5;entryDx=0;entryDy=0;" edge="1" parent="1" source="lXyPwl060S7qnHaX3h5r-128" target="lXyPwl060S7qnHaX3h5r-135">
          <mxGeometry relative="1" as="geometry" />
        </mxCell>
        <mxCell id="lXyPwl060S7qnHaX3h5r-128" value="&lt;font style=&quot;font-size: 18px;&quot;&gt;Options&lt;/font&gt;" style="rounded=1;whiteSpace=wrap;html=1;" parent="1" vertex="1">
          <mxGeometry x="660" y="400" width="120" height="60" as="geometry" />
        </mxCell>
        <mxCell id="B_4cpsGFPYS9S5uiymkb-32" style="edgeStyle=orthogonalEdgeStyle;rounded=0;orthogonalLoop=1;jettySize=auto;html=1;exitX=0.5;exitY=0;exitDx=0;exitDy=0;entryX=0;entryY=0.5;entryDx=0;entryDy=0;" parent="1" source="lXyPwl060S7qnHaX3h5r-132" target="B_4cpsGFPYS9S5uiymkb-31" edge="1">
          <mxGeometry relative="1" as="geometry">
            <Array as="points">
              <mxPoint x="910" y="210" />
            </Array>
          </mxGeometry>
        </mxCell>
        <mxCell id="m8J3gn9Aabh27My44AZE-9" style="edgeStyle=orthogonalEdgeStyle;rounded=0;orthogonalLoop=1;jettySize=auto;html=1;exitX=1;exitY=0.5;exitDx=0;exitDy=0;entryX=0;entryY=0.25;entryDx=0;entryDy=0;" edge="1" parent="1" source="lXyPwl060S7qnHaX3h5r-132" target="lXyPwl060S7qnHaX3h5r-153">
          <mxGeometry relative="1" as="geometry" />
        </mxCell>
        <mxCell id="lXyPwl060S7qnHaX3h5r-132" value="&lt;font style=&quot;font-size: 18px;&quot;&gt;Custom Pin&lt;/font&gt;" style="rounded=1;whiteSpace=wrap;html=1;" parent="1" vertex="1">
          <mxGeometry x="850" y="280" width="120" height="60" as="geometry" />
        </mxCell>
        <mxCell id="B_4cpsGFPYS9S5uiymkb-20" style="edgeStyle=orthogonalEdgeStyle;rounded=0;orthogonalLoop=1;jettySize=auto;html=1;exitX=1;exitY=0.75;exitDx=0;exitDy=0;" parent="1" source="lXyPwl060S7qnHaX3h5r-133" target="B_4cpsGFPYS9S5uiymkb-18" edge="1">
          <mxGeometry relative="1" as="geometry" />
        </mxCell>
        <mxCell id="m8J3gn9Aabh27My44AZE-7" style="edgeStyle=orthogonalEdgeStyle;rounded=0;orthogonalLoop=1;jettySize=auto;html=1;exitX=1;exitY=0.25;exitDx=0;exitDy=0;entryX=0;entryY=0.75;entryDx=0;entryDy=0;" edge="1" parent="1" source="lXyPwl060S7qnHaX3h5r-133" target="lXyPwl060S7qnHaX3h5r-153">
          <mxGeometry relative="1" as="geometry" />
        </mxCell>
        <mxCell id="lXyPwl060S7qnHaX3h5r-133" value="&lt;font style=&quot;font-size: 18px;&quot;&gt;Quick Pin&lt;/font&gt;" style="rounded=1;whiteSpace=wrap;html=1;" parent="1" vertex="1">
          <mxGeometry x="850" y="360" width="120" height="60" as="geometry" />
        </mxCell>
        <mxCell id="B_4cpsGFPYS9S5uiymkb-21" style="edgeStyle=orthogonalEdgeStyle;rounded=0;orthogonalLoop=1;jettySize=auto;html=1;exitX=1;exitY=0.5;exitDx=0;exitDy=0;entryX=0;entryY=0.5;entryDx=0;entryDy=0;" parent="1" source="lXyPwl060S7qnHaX3h5r-134" target="B_4cpsGFPYS9S5uiymkb-18" edge="1">
          <mxGeometry relative="1" as="geometry" />
        </mxCell>
        <mxCell id="lXyPwl060S7qnHaX3h5r-134" value="&lt;font style=&quot;font-size: 18px;&quot;&gt;Retrieve data&lt;/font&gt;" style="rounded=1;whiteSpace=wrap;html=1;" parent="1" vertex="1">
          <mxGeometry x="850" y="440" width="120" height="60" as="geometry" />
        </mxCell>
        <mxCell id="lXyPwl060S7qnHaX3h5r-136" style="edgeStyle=orthogonalEdgeStyle;rounded=0;orthogonalLoop=1;jettySize=auto;html=1;exitX=0.5;exitY=1;exitDx=0;exitDy=0;entryX=0.5;entryY=1;entryDx=0;entryDy=0;" parent="1" source="lXyPwl060S7qnHaX3h5r-135" target="lXyPwl060S7qnHaX3h5r-124" edge="1">
          <mxGeometry relative="1" as="geometry">
            <Array as="points">
              <mxPoint x="910" y="680" />
              <mxPoint x="360" y="680" />
            </Array>
          </mxGeometry>
        </mxCell>
        <mxCell id="lXyPwl060S7qnHaX3h5r-135" value="&lt;font style=&quot;font-size: 18px;&quot;&gt;Logout&lt;/font&gt;" style="rounded=1;whiteSpace=wrap;html=1;" parent="1" vertex="1">
          <mxGeometry x="850" y="600" width="120" height="60" as="geometry" />
        </mxCell>
        <mxCell id="lXyPwl060S7qnHaX3h5r-137" value="Succes" style="text;html=1;align=center;verticalAlign=middle;resizable=0;points=[];autosize=1;" parent="1" vertex="1">
          <mxGeometry x="590" y="390" width="60" height="30" as="geometry" />
        </mxCell>
        <mxCell id="B_4cpsGFPYS9S5uiymkb-1" style="edgeStyle=orthogonalEdgeStyle;rounded=0;orthogonalLoop=1;jettySize=auto;html=1;exitX=0.5;exitY=0;exitDx=0;exitDy=0;" parent="1" source="lXyPwl060S7qnHaX3h5r-138" edge="1">
          <mxGeometry relative="1" as="geometry">
            <mxPoint x="530" y="250" as="targetPoint" />
          </mxGeometry>
        </mxCell>
        <mxCell id="lXyPwl060S7qnHaX3h5r-138" value="&lt;font style=&quot;font-size: 18px;&quot;&gt;Card Block&lt;/font&gt;" style="rounded=1;whiteSpace=wrap;html=1;" parent="1" vertex="1">
          <mxGeometry x="470" y="290" width="120" height="60" as="geometry" />
        </mxCell>
        <mxCell id="lXyPwl060S7qnHaX3h5r-140" value="Fail" style="text;html=1;align=center;verticalAlign=middle;resizable=0;points=[];autosize=1;" parent="1" vertex="1">
          <mxGeometry x="530" y="360" width="40" height="30" as="geometry" />
        </mxCell>
        <mxCell id="B_4cpsGFPYS9S5uiymkb-3" style="edgeStyle=orthogonalEdgeStyle;rounded=0;orthogonalLoop=1;jettySize=auto;html=1;exitX=1;exitY=0.5;exitDx=0;exitDy=0;entryX=0;entryY=0.5;entryDx=0;entryDy=0;" parent="1" source="lXyPwl060S7qnHaX3h5r-153" target="B_4cpsGFPYS9S5uiymkb-2" edge="1">
          <mxGeometry relative="1" as="geometry" />
        </mxCell>
        <mxCell id="m8J3gn9Aabh27My44AZE-8" style="edgeStyle=orthogonalEdgeStyle;rounded=0;orthogonalLoop=1;jettySize=auto;html=1;exitX=0.5;exitY=1;exitDx=0;exitDy=0;entryX=1;entryY=0.5;entryDx=0;entryDy=0;" edge="1" parent="1" source="lXyPwl060S7qnHaX3h5r-153" target="lXyPwl060S7qnHaX3h5r-133">
          <mxGeometry relative="1" as="geometry" />
        </mxCell>
        <mxCell id="lXyPwl060S7qnHaX3h5r-153" value="&lt;font style=&quot;font-size: 18px;&quot;&gt;Cash Combinations&lt;/font&gt;" style="rounded=1;whiteSpace=wrap;html=1;" parent="1" vertex="1">
          <mxGeometry x="1020" y="310" width="120" height="60" as="geometry" />
        </mxCell>
        <mxCell id="B_4cpsGFPYS9S5uiymkb-38" style="edgeStyle=orthogonalEdgeStyle;rounded=0;orthogonalLoop=1;jettySize=auto;html=1;exitX=1;exitY=0.5;exitDx=0;exitDy=0;entryX=0.5;entryY=1;entryDx=0;entryDy=0;" parent="1" source="lXyPwl060S7qnHaX3h5r-156" target="B_4cpsGFPYS9S5uiymkb-18" edge="1">
          <mxGeometry relative="1" as="geometry" />
        </mxCell>
        <mxCell id="lXyPwl060S7qnHaX3h5r-156" value="&lt;font style=&quot;font-size: 18px;&quot;&gt;Acknowledge&lt;/font&gt;" style="rounded=1;whiteSpace=wrap;html=1;" parent="1" vertex="1">
          <mxGeometry x="1300" y="310" width="120" height="60" as="geometry" />
        </mxCell>
        <mxCell id="lXyPwl060S7qnHaX3h5r-160" value="&lt;span style=&quot;font-size: 24px;&quot;&gt;&lt;b&gt;Sitemap (GUI)&lt;/b&gt;&lt;/span&gt;" style="text;html=1;align=center;verticalAlign=middle;whiteSpace=wrap;rounded=0;" parent="1" vertex="1">
          <mxGeometry x="590" y="170" width="230" height="30" as="geometry" />
        </mxCell>
        <mxCell id="B_4cpsGFPYS9S5uiymkb-4" style="edgeStyle=orthogonalEdgeStyle;rounded=0;orthogonalLoop=1;jettySize=auto;html=1;exitX=1;exitY=0.5;exitDx=0;exitDy=0;entryX=0;entryY=0.5;entryDx=0;entryDy=0;" parent="1" source="B_4cpsGFPYS9S5uiymkb-2" target="lXyPwl060S7qnHaX3h5r-156" edge="1">
          <mxGeometry relative="1" as="geometry" />
        </mxCell>
        <mxCell id="B_4cpsGFPYS9S5uiymkb-2" value="&lt;font style=&quot;font-size: 18px;&quot;&gt;Receipt Option&lt;/font&gt;" style="rounded=1;whiteSpace=wrap;html=1;" parent="1" vertex="1">
          <mxGeometry x="1160" y="310" width="120" height="60" as="geometry" />
        </mxCell>
        <mxCell id="B_4cpsGFPYS9S5uiymkb-18" value="&lt;font style=&quot;font-size: 18px;&quot;&gt;Options&lt;/font&gt;" style="shape=step;perimeter=stepPerimeter;whiteSpace=wrap;html=1;fixedSize=1;" parent="1" vertex="1">
          <mxGeometry x="1040" y="430" width="120" height="80" as="geometry" />
        </mxCell>
        <mxCell id="B_4cpsGFPYS9S5uiymkb-31" value="&lt;font style=&quot;font-size: 18px;&quot;&gt;Options&lt;br&gt;&lt;/font&gt;" style="shape=step;perimeter=stepPerimeter;whiteSpace=wrap;html=1;fixedSize=1;" parent="1" vertex="1">
          <mxGeometry x="1040" y="170" width="120" height="80" as="geometry" />
        </mxCell>
        <mxCell id="B_4cpsGFPYS9S5uiymkb-34" style="edgeStyle=orthogonalEdgeStyle;rounded=0;orthogonalLoop=1;jettySize=auto;html=1;exitX=0.5;exitY=0;exitDx=0;exitDy=0;entryX=1;entryY=0.15;entryDx=0;entryDy=0;entryPerimeter=0;" parent="1" source="lXyPwl060S7qnHaX3h5r-153" target="lXyPwl060S7qnHaX3h5r-132" edge="1">
          <mxGeometry relative="1" as="geometry" />
        </mxCell>
        <mxCell id="B_4cpsGFPYS9S5uiymkb-35" value="Return" style="text;html=1;align=center;verticalAlign=middle;resizable=0;points=[];autosize=1;" parent="1" vertex="1">
          <mxGeometry x="990" y="258" width="60" height="30" as="geometry" />
        </mxCell>
        <mxCell id="B_4cpsGFPYS9S5uiymkb-36" value="Return" style="text;html=1;align=center;verticalAlign=middle;resizable=0;points=[];autosize=1;" parent="1" vertex="1">
          <mxGeometry x="940" y="178" width="60" height="30" as="geometry" />
        </mxCell>
        <mxCell id="B_4cpsGFPYS9S5uiymkb-39" value="Return" style="text;html=1;align=center;verticalAlign=middle;resizable=0;points=[];autosize=1;" parent="1" vertex="1">
          <mxGeometry x="1230" y="528" width="60" height="30" as="geometry" />
        </mxCell>
        <mxCell id="B_4cpsGFPYS9S5uiymkb-43" style="edgeStyle=orthogonalEdgeStyle;rounded=0;orthogonalLoop=1;jettySize=auto;html=1;exitX=0.5;exitY=0;exitDx=0;exitDy=0;entryX=0.5;entryY=0;entryDx=0;entryDy=0;" parent="1" source="B_4cpsGFPYS9S5uiymkb-40" target="lXyPwl060S7qnHaX3h5r-124" edge="1">
          <mxGeometry relative="1" as="geometry">
            <Array as="points">
              <mxPoint x="720" y="250" />
              <mxPoint x="360" y="250" />
            </Array>
          </mxGeometry>
        </mxCell>
        <mxCell id="B_4cpsGFPYS9S5uiymkb-40" value="&lt;font style=&quot;font-size: 18px;&quot;&gt;Timeout&lt;/font&gt;" style="rounded=1;whiteSpace=wrap;html=1;" parent="1" vertex="1">
          <mxGeometry x="660" y="288" width="120" height="60" as="geometry" />
        </mxCell>
        <mxCell id="B_4cpsGFPYS9S5uiymkb-42" value="Timeout" style="text;html=1;align=center;verticalAlign=middle;resizable=0;points=[];autosize=1;" parent="1" vertex="1">
          <mxGeometry x="660" y="360" width="70" height="30" as="geometry" />
        </mxCell>
        <mxCell id="m8J3gn9Aabh27My44AZE-4" style="edgeStyle=orthogonalEdgeStyle;rounded=0;orthogonalLoop=1;jettySize=auto;html=1;exitX=1;exitY=0.5;exitDx=0;exitDy=0;entryX=0.25;entryY=1;entryDx=0;entryDy=0;" edge="1" parent="1" source="m8J3gn9Aabh27My44AZE-1" target="B_4cpsGFPYS9S5uiymkb-18">
          <mxGeometry relative="1" as="geometry" />
        </mxCell>
        <mxCell id="m8J3gn9Aabh27My44AZE-1" value="&lt;font style=&quot;font-size: 18px;&quot;&gt;Transaction History&lt;/font&gt;" style="rounded=1;whiteSpace=wrap;html=1;" vertex="1" parent="1">
          <mxGeometry x="850" y="520" width="120" height="60" as="geometry" />
        </mxCell>
      </root>
    </mxGraphModel>
  </diagram>
</mxfile>
